<?xml version="1.0" encoding="UTF-8"?>
<svg width="500" height="600" viewBox="0 0 500 600" fill="none" xmlns="http://www.w3.org/2000/svg">
  <path d="M250 0C175 0 125 50 125 125C125 150 130 170 140 190C150 210 165 225 175 235C185 245 190 250 190 260V300C190 320 185 335 175 350C165 365 150 380 140 400C130 420 125 445 125 475C125 525 150 562.5 200 587.5C250 612.5 300 612.5 350 587.5C400 562.5 425 525 425 475C425 445 420 420 410 400C400 380 385 365 375 350C365 335 360 320 360 300V260C360 250 365 245 375 235C385 225 400 210 410 190C420 170 425 150 425 125C425 50 375 0 300 0H250Z" 
        stroke="rgba(255,255,255,0.8)" 
        stroke-width="2" 
        fill="none"/>
</svg> 